# xmcd CD database file
# Copyright (C) 1993-1998 Ti Kan
# 
# Track frame offsets:
#     150
#     15282
#     36775
#     58360
#     76605
#     92770
#     110877
#     125822
# 
# Disc length: 1846 seconds
# 
# Revision: 1
# Processed by: cddbd v1.4b41PL1 Copyright (c) Steve Scherf et al.
# Submitted via: DiscPlay 4.0.3
# 
DISCID=63073408
DTITLE=Various EMI - EMI #7 1998
DYEAR=1900
DGENRE=
TTITLE0=Moving On /. Rankin Family
TTITLE1=Falling - Bruce Guthro
TTITLE2=Holes In the Floor of Heaven - Steve Wariner
TTITLE3=Commitment - LeAnn Rimes
TTITLE4=Two Pinas Coladas - Garth Brooks
TTITLE5=Wrong reasons - Smokie
TTITLE6=Don't Lie IN My Arms Tonight - Keith Perry
TTITLE7=Amnesia - Blake and Brian
EXTD=
EXTT0=
EXTT1=
EXTT2=
EXTT3=
EXTT4=
EXTT5=
EXTT6=
EXTT7=
PLAYORDER=
